<?xml version="1.0" encoding="UTF-8" standalone="no"?>
<!-- Created with Inkscape (http://www.inkscape.org/) -->

<svg
   version="1.1"
   id="svg46"
   width="200"
   height="162.52"
   viewBox="0 0 200 162.52"
   xmlns="http://www.w3.org/2000/svg"
   xmlns:svg="http://www.w3.org/2000/svg">
  <defs
     id="defs50" />
  <g
     id="g52">
    <path
       style="fill:#facb19;fill-opacity:1;stroke-width:0.95945"
       d="m 17.563896,10.586448 c 7.352281,7.839445 31.124213,37.833236 81.099725,41.05047 C 88.220588,22.310093 130.33026,-19.046424 165.6379,15.653955 L 190.58359,6.2175824 C 188.06055,14.465296 183.06285,21.917901 173.5007,27.903945 l 22.36287,-6.054372 c -6.63135,9.883825 -13.10061,15.718712 -19.5137,20.150442 C 178.78174,149.46445 64.974591,185.04805 4.2274953,141.53706 L 62.429206,125.21633 C 44.411023,125.16297 29.756279,112.04855 25.719155,97.953593 L 43.406928,97.22469 C 20.957579,92.676644 11.110125,72.161494 11.928133,58.176216 l 17.717642,4.896229 C 8.2419835,47.981382 9.4498414,22.920732 17.563896,10.586448 Z"
       id="path214" />
    <path
       style="fill:#e7e9ea;fill-opacity:1"
       d="M 176.34945,42.0021 C 159.86279,27.863981 132.15077,69.832745 98.546492,51.340007 87.672733,27.379627 126.88207,-21.661568 165.63727,15.655075 l 24.94041,-9.4324038 c -2.885,8.9469868 -8.13941,16.4395378 -17.06927,21.6759668 l 22.35236,-6.046364 c -5.00561,7.27155 -10.72903,14.277215 -19.51132,20.149826 z"
       id="path1431" />
    <path
       style="fill:#3b322d;fill-opacity:1"
       d="M 98.557754,51.248276 C 185.75729,-17.403881 120.0924,178.11185 4.7061845,141.8405 105.67608,124.06038 97.972109,86.915769 98.557754,51.248276 Z"
       id="path1373" />
    <path
       style="fill:#3b322d;fill-opacity:1"
       d="M 98.578316,51.38097 C 60.645879,48.316585 36.144848,32.033518 17.611724,10.443762 7.4126229,26.060083 10.99935,50.696339 29.427002,62.973502 l -17.54162,-4.945509 c -0.972051,14.582727 9.315762,35.206386 31.063229,39.160861 l -17.419007,0.567175 c 2.714011,11.417251 15.900725,28.516041 36.263541,27.464261 L 4.199534,141.5385 c 10.840041,8.76826 109.888426,9.51148 94.378782,-90.15753 z"
       id="path1429" />
  </g>
</svg>
